<svg width="21" height="27" viewBox="0 0 21 27" fill="none" xmlns="http://www.w3.org/2000/svg">
<path d="M20.6285 19.0485L9.5299 7.94989C9.51061 7.9306 9.49001 7.9128 9.46809 7.8965C9.44623 7.8802 9.42324 7.86562 9.39917 7.85272C9.3751 7.83982 9.3502 7.82878 9.32452 7.81952C9.29884 7.81032 9.27256 7.80304 9.2458 7.79766C9.21905 7.79228 9.19205 7.78894 9.16476 7.78757C9.13747 7.78619 9.11029 7.78685 9.08312 7.78954C9.05595 7.79217 9.02907 7.79676 9.00261 7.80339C8.9761 7.81002 8.95024 7.81856 8.92504 7.82895C8.89977 7.83941 8.87547 7.85165 8.852 7.86568C8.82858 7.87972 8.80631 7.89537 8.78523 7.91268C8.76408 7.93 8.74438 7.94876 8.72598 7.969C8.70765 7.98919 8.69087 8.01063 8.6757 8.03332C8.66053 8.05602 8.64709 8.07973 8.63544 8.10439C8.62374 8.12906 8.61394 8.15444 8.606 8.1806C8.59806 8.2067 8.59208 8.23327 8.58808 8.26027C8.58408 8.28726 8.58205 8.31438 8.58205 8.34167V23.7099C8.58205 23.7358 8.58384 23.7615 8.58749 23.7872C8.59107 23.8128 8.59644 23.838 8.60355 23.8629C8.61066 23.8878 8.6195 23.9121 8.63001 23.9357C8.64058 23.9593 8.65264 23.9821 8.66638 24.0041C8.68012 24.026 8.69528 24.0469 8.71189 24.0668C8.72855 24.0866 8.74647 24.1052 8.7657 24.1224C8.78493 24.1397 8.80523 24.1556 8.82673 24.1701C8.84817 24.1846 8.87051 24.1975 8.8938 24.2088C8.91703 24.2202 8.94098 24.2299 8.96559 24.2379C8.99019 24.2459 9.01528 24.2521 9.04072 24.2566C9.06622 24.261 9.0919 24.2637 9.11776 24.2647C9.14362 24.2655 9.16942 24.2646 9.19516 24.2619C9.2209 24.2593 9.24634 24.2547 9.27142 24.2484C9.29651 24.2422 9.32105 24.2342 9.34506 24.2245C9.36907 24.2148 9.39224 24.2035 9.41464 24.1905C9.43709 24.1776 9.45848 24.1632 9.47884 24.1472L12.2968 21.9441L14.7563 26.3714C14.7683 26.3928 14.7817 26.4133 14.7964 26.433C14.8112 26.4526 14.8272 26.4712 14.8445 26.4887C14.8617 26.5062 14.88 26.5225 14.8994 26.5375C14.9188 26.5526 14.9391 26.5664 14.9603 26.5787C14.9815 26.5911 15.0034 26.602 15.0261 26.6115C15.0488 26.621 15.072 26.6289 15.0957 26.6353C15.1195 26.6417 15.1435 26.6465 15.1679 26.6497C15.1922 26.6529 15.2167 26.6544 15.2413 26.6544C15.3287 26.6544 15.4116 26.6348 15.4899 26.5956L18.8195 24.9308C18.853 24.914 18.8845 24.894 18.9139 24.8708C18.9434 24.8476 18.9703 24.8218 18.9945 24.7932C19.0187 24.7646 19.0398 24.7338 19.0578 24.7009C19.0758 24.668 19.0903 24.6337 19.1013 24.5978C19.1125 24.562 19.1199 24.5255 19.1237 24.4882C19.1274 24.4509 19.1274 24.4136 19.1236 24.3763C19.1198 24.339 19.1123 24.3025 19.101 24.2667C19.0898 24.2309 19.0751 24.1967 19.057 24.1639L16.7396 19.9952H20.2356C20.2629 19.9953 20.2901 19.9933 20.3172 19.9894C20.3442 19.9854 20.3708 19.9794 20.397 19.9716C20.4231 19.9637 20.4486 19.9539 20.4733 19.9422C20.498 19.9306 20.5217 19.9172 20.5445 19.902C20.5672 19.8869 20.5887 19.8701 20.609 19.8518C20.6292 19.8335 20.648 19.8137 20.6653 19.7926C20.6827 19.7715 20.6984 19.7492 20.7125 19.7258C20.7266 19.7024 20.7388 19.678 20.7493 19.6528C20.7597 19.6276 20.7682 19.6017 20.7749 19.5752C20.7816 19.5487 20.7862 19.5218 20.7889 19.4946C20.7915 19.4674 20.7923 19.4402 20.7909 19.4129C20.7895 19.3856 20.7862 19.3586 20.7808 19.3318C20.7755 19.3049 20.7682 19.2787 20.759 19.253C20.7498 19.2272 20.7387 19.2023 20.7258 19.1783C20.7129 19.1542 20.6983 19.1311 20.682 19.1092C20.6657 19.0873 20.6478 19.0667 20.6285 19.0474V19.0485Z" fill="white"/>
<path d="M9.13699 4.45743C9.11883 4.45743 9.10068 4.45653 9.08264 4.45474C9.06455 4.45295 9.04657 4.45026 9.02877 4.44674C9.01092 4.44321 8.9933 4.43879 8.97592 4.43348C8.95854 4.42822 8.94146 4.42213 8.92462 4.41514C8.90784 4.40821 8.89147 4.40045 8.87541 4.39185C8.8594 4.38331 8.84381 4.37399 8.8287 4.3639C8.81359 4.35375 8.79902 4.34294 8.78499 4.33141C8.77089 4.31989 8.75746 4.3077 8.74462 4.29486C8.73177 4.28202 8.71959 4.26858 8.70807 4.25449C8.69654 4.24046 8.68567 4.22588 8.67558 4.21077C8.66548 4.19566 8.65617 4.18008 8.64763 4.16407C8.63903 4.14801 8.63126 4.13164 8.62433 4.1148C8.61735 4.09802 8.61126 4.08094 8.606 4.06356C8.60068 4.04618 8.59627 4.02856 8.59274 4.0107C8.58922 3.99291 8.58653 3.97493 8.58474 3.95683C8.58295 3.9388 8.58205 3.92064 8.58205 3.90249V0.572914C8.58205 0.554698 8.58295 0.536603 8.58474 0.518507C8.58653 0.500411 8.58922 0.482435 8.59274 0.464637C8.59627 0.44678 8.60068 0.429162 8.606 0.411783C8.61126 0.394404 8.61735 0.377323 8.62433 0.360541C8.63126 0.34376 8.63903 0.327336 8.64763 0.311271C8.65617 0.295265 8.66548 0.279678 8.67558 0.264568C8.68567 0.249458 8.69654 0.234886 8.70807 0.220851C8.71959 0.206816 8.73177 0.193319 8.74462 0.180479C8.75746 0.167639 8.77089 0.155455 8.78499 0.143929C8.79902 0.132403 8.81359 0.121593 8.8287 0.1115C8.84381 0.101407 8.8594 0.0920304 8.87541 0.0834901C8.89147 0.0748901 8.90784 0.0671262 8.92462 0.0601985C8.94146 0.0532707 8.95854 0.0471193 8.97592 0.0418637C8.9933 0.0365485 9.01092 0.0321887 9.02877 0.0286054C9.04657 0.0250818 9.06455 0.0223943 9.08264 0.0206026C9.10068 0.0188707 9.11883 0.0179749 9.13699 0.0179749C9.15521 0.0179749 9.1733 0.0188707 9.1914 0.0206026C9.20949 0.0223943 9.22747 0.0250818 9.24527 0.0286054C9.26312 0.0321887 9.28068 0.0365485 9.29812 0.0418637C9.3155 0.0471193 9.33258 0.0532707 9.34936 0.0601985C9.36615 0.0671262 9.38257 0.0748901 9.39857 0.0834901C9.41464 0.0920304 9.43023 0.101407 9.44534 0.1115C9.46045 0.121593 9.47502 0.132403 9.48905 0.143929C9.50309 0.155455 9.51653 0.167639 9.52943 0.180479C9.54227 0.193319 9.55445 0.206816 9.56598 0.220851C9.5775 0.234886 9.58831 0.249458 9.5984 0.264568C9.6085 0.279678 9.61787 0.295265 9.62641 0.311271C9.63496 0.327336 9.64272 0.34376 9.64971 0.360541C9.65663 0.377323 9.66278 0.394404 9.66804 0.411783C9.6733 0.429162 9.67772 0.44678 9.6813 0.464637C9.68482 0.482435 9.68751 0.500411 9.68924 0.518507C9.69103 0.536603 9.69193 0.554698 9.69193 0.572914V3.90249C9.69193 3.92064 9.69103 3.9388 9.68924 3.95683C9.68751 3.97493 9.68482 3.99291 9.6813 4.0107C9.67772 4.02856 9.6733 4.04618 9.66804 4.06356C9.66278 4.08094 9.65663 4.09802 9.64971 4.1148C9.64272 4.13164 9.63496 4.14801 9.62641 4.16407C9.61787 4.18008 9.6085 4.19566 9.5984 4.21077C9.58831 4.22588 9.5775 4.24046 9.56598 4.25449C9.55445 4.26858 9.54227 4.28202 9.52943 4.29486C9.51653 4.3077 9.50309 4.31989 9.48905 4.33141C9.47502 4.34294 9.46045 4.35375 9.44534 4.3639C9.43023 4.37399 9.41464 4.38331 9.39857 4.39185C9.38257 4.40045 9.36615 4.40821 9.34936 4.41514C9.33258 4.42213 9.3155 4.42822 9.29812 4.43348C9.28068 4.43879 9.26312 4.44321 9.24527 4.44674C9.22747 4.45026 9.20949 4.45295 9.1914 4.45474C9.1733 4.45653 9.15521 4.45743 9.13699 4.45743Z" fill="white"/>
<path d="M4.69701 8.89682H1.36744C1.34928 8.89682 1.33113 8.89592 1.31303 8.89419C1.295 8.8924 1.27702 8.88971 1.25916 8.88619C1.24137 8.8826 1.22375 8.87824 1.20637 8.87293C1.18899 8.86767 1.17185 8.86152 1.15507 8.8546C1.13828 8.84767 1.12186 8.8399 1.10586 8.8313C1.08985 8.82276 1.07426 8.81339 1.05915 8.80329C1.04404 8.7932 1.02947 8.78239 1.01538 8.77087C1.00134 8.75934 0.987904 8.74716 0.975064 8.73431C0.962224 8.72147 0.949981 8.70798 0.938454 8.69394C0.926928 8.67991 0.916118 8.66534 0.906025 8.65023C0.895932 8.63512 0.886615 8.61953 0.878015 8.60352C0.869475 8.58746 0.861711 8.57103 0.854783 8.55425C0.847796 8.53747 0.841704 8.52039 0.836389 8.50301C0.831133 8.48563 0.826714 8.46801 0.82319 8.45016C0.819607 8.43236 0.816979 8.41438 0.815188 8.39629C0.813396 8.37819 0.8125 8.3601 0.8125 8.34188C0.8125 8.32373 0.813396 8.30563 0.815188 8.28753C0.816979 8.26944 0.819607 8.25146 0.82319 8.23366C0.826714 8.21581 0.831133 8.19819 0.836389 8.18081C0.841704 8.16343 0.847796 8.14635 0.854783 8.12957C0.861711 8.11273 0.869475 8.09636 0.878015 8.0803C0.886615 8.06429 0.895932 8.04871 0.906025 8.0336C0.916118 8.01849 0.926928 8.00391 0.938454 7.98988C0.949981 7.97584 0.962224 7.96235 0.975064 7.94951C0.987904 7.93667 1.00134 7.92448 1.01538 7.91296C1.02947 7.90143 1.04404 7.89062 1.05915 7.88053C1.07426 7.87038 1.08985 7.86106 1.10586 7.85252C1.12186 7.84392 1.13828 7.83615 1.15507 7.82923C1.17185 7.82224 1.18899 7.81615 1.20637 7.81089C1.22375 7.80558 1.24137 7.80122 1.25916 7.79763C1.27702 7.79411 1.295 7.79142 1.31303 7.78963C1.33113 7.7879 1.34928 7.787 1.36744 7.787H4.69701C4.71523 7.787 4.73332 7.7879 4.75142 7.78963C4.76952 7.79142 4.78749 7.79411 4.80529 7.79763C4.82315 7.80122 4.84071 7.80558 4.85814 7.81089C4.87552 7.81615 4.8926 7.82224 4.90939 7.82923C4.92617 7.83615 4.94259 7.84392 4.95866 7.85252C4.97466 7.86106 4.99025 7.87038 5.00536 7.88053C5.02047 7.89062 5.03504 7.90143 5.04908 7.91296C5.06311 7.92448 5.07661 7.93667 5.08945 7.94951C5.10229 7.96235 5.11447 7.97584 5.126 7.98988C5.13752 8.00391 5.14833 8.01849 5.15843 8.0336C5.16852 8.04871 5.1779 8.06429 5.18644 8.0803C5.19504 8.09636 5.20274 8.11273 5.20973 8.12957C5.21666 8.14635 5.22281 8.16343 5.22806 8.18081C5.23332 8.19819 5.23774 8.21581 5.24132 8.23366C5.24485 8.25146 5.24753 8.26944 5.24927 8.28753C5.25106 8.30563 5.25195 8.32373 5.25195 8.34188C5.25195 8.3601 5.25106 8.37819 5.24927 8.39629C5.24753 8.41438 5.24485 8.43236 5.24132 8.45016C5.23774 8.46801 5.23332 8.48563 5.22806 8.50301C5.22281 8.52039 5.21666 8.53747 5.20973 8.55425C5.20274 8.57103 5.19504 8.58746 5.18644 8.60352C5.1779 8.61953 5.16852 8.63512 5.15843 8.65023C5.14833 8.66534 5.13752 8.67991 5.126 8.69394C5.11447 8.70798 5.10229 8.72147 5.08945 8.73431C5.07661 8.74716 5.06311 8.75934 5.04908 8.77087C5.03504 8.78239 5.02047 8.7932 5.00536 8.80329C4.99025 8.81339 4.97466 8.82276 4.95866 8.8313C4.94259 8.8399 4.92617 8.84767 4.90939 8.8546C4.8926 8.86152 4.87552 8.86767 4.85814 8.87293C4.84071 8.87824 4.82315 8.8826 4.80529 8.88619C4.78749 8.88971 4.76952 8.8924 4.75142 8.89419C4.73332 8.89592 4.71523 8.89682 4.69701 8.89682Z" fill="white"/>
<path d="M16.9059 8.89682H13.5763C13.5581 8.89682 13.54 8.89592 13.5219 8.89419C13.5039 8.8924 13.4859 8.88971 13.4681 8.88619C13.4502 8.8826 13.4326 8.87824 13.4152 8.87293C13.3978 8.86767 13.3808 8.86152 13.3639 8.8546C13.3471 8.84767 13.3308 8.8399 13.3147 8.8313C13.2987 8.82276 13.2831 8.81339 13.268 8.80329C13.2529 8.7932 13.2383 8.78239 13.2243 8.77087C13.2102 8.75934 13.1968 8.74716 13.1839 8.73431C13.1711 8.72147 13.1589 8.70798 13.1474 8.69394C13.1358 8.67991 13.125 8.66534 13.1149 8.65023C13.1048 8.63512 13.0955 8.61953 13.0869 8.60352C13.0783 8.58746 13.0706 8.57103 13.0636 8.55425C13.0567 8.53747 13.0506 8.52039 13.0453 8.50301C13.04 8.48563 13.0356 8.46801 13.032 8.45016C13.0285 8.43236 13.0258 8.41438 13.024 8.39629C13.0223 8.37819 13.0214 8.3601 13.0214 8.34188C13.0214 8.32373 13.0223 8.30563 13.024 8.28753C13.0258 8.26944 13.0285 8.25146 13.032 8.23366C13.0356 8.21581 13.04 8.19819 13.0453 8.18081C13.0506 8.16343 13.0567 8.14635 13.0636 8.12957C13.0706 8.11273 13.0783 8.09636 13.0869 8.0803C13.0955 8.06429 13.1048 8.04871 13.1149 8.0336C13.125 8.01849 13.1358 8.00391 13.1474 7.98988C13.1589 7.97584 13.1711 7.96235 13.1839 7.94951C13.1968 7.93667 13.2102 7.92448 13.2243 7.91296C13.2383 7.90143 13.2529 7.89062 13.268 7.88053C13.2831 7.87038 13.2987 7.86106 13.3147 7.85252C13.3308 7.84392 13.3471 7.83615 13.3639 7.82923C13.3808 7.82224 13.3978 7.81615 13.4152 7.81089C13.4326 7.80558 13.4502 7.80122 13.4681 7.79763C13.4859 7.79411 13.5039 7.79142 13.5219 7.78963C13.54 7.7879 13.5581 7.787 13.5763 7.787H16.9059C16.9241 7.787 16.9422 7.7879 16.9603 7.78963C16.9784 7.79142 16.9963 7.79411 17.0141 7.79763C17.032 7.80122 17.0496 7.80558 17.067 7.81089C17.0844 7.81615 17.1015 7.82224 17.1182 7.82923C17.1351 7.83615 17.1514 7.84392 17.1675 7.85252C17.1835 7.86106 17.1991 7.87038 17.2142 7.88053C17.2293 7.89062 17.2439 7.90143 17.2579 7.91296C17.272 7.92448 17.2855 7.93667 17.2983 7.94951C17.3111 7.96235 17.3233 7.97584 17.3348 7.98988C17.3464 8.00391 17.3572 8.01849 17.3673 8.0336C17.3774 8.04871 17.3867 8.06429 17.3953 8.0803C17.4039 8.09636 17.4116 8.11273 17.4186 8.12957C17.4256 8.14635 17.4317 8.16343 17.4369 8.18081C17.4422 8.19819 17.4466 8.21581 17.4502 8.23366C17.4537 8.25146 17.4564 8.26944 17.4582 8.28753C17.4599 8.30563 17.4608 8.32373 17.4608 8.34188C17.4608 8.3601 17.4599 8.37819 17.4582 8.39629C17.4564 8.41438 17.4537 8.43236 17.4502 8.45016C17.4466 8.46801 17.4422 8.48563 17.4369 8.50301C17.4317 8.52039 17.4256 8.53747 17.4186 8.55425C17.4116 8.57103 17.4039 8.58746 17.3953 8.60352C17.3867 8.61953 17.3774 8.63512 17.3673 8.65023C17.3572 8.66534 17.3464 8.67991 17.3348 8.69394C17.3233 8.70798 17.3111 8.72147 17.2983 8.73431C17.2855 8.74716 17.272 8.75934 17.2579 8.77087C17.2439 8.78239 17.2293 8.7932 17.2142 8.80329C17.1991 8.81339 17.1835 8.82276 17.1675 8.8313C17.1514 8.8399 17.1351 8.84767 17.1182 8.8546C17.1015 8.86152 17.0844 8.86767 17.067 8.87293C17.0496 8.87824 17.032 8.8826 17.0141 8.88619C16.9963 8.88971 16.9784 8.8924 16.9603 8.89419C16.9422 8.89592 16.9241 8.89682 16.9059 8.89682Z" fill="white"/>
<path d="M5.99788 5.7568C5.96139 5.75686 5.92526 5.75339 5.88948 5.74629C5.85371 5.73924 5.81901 5.72879 5.78527 5.71487C5.75158 5.70096 5.71957 5.68394 5.68918 5.66369C5.65884 5.6435 5.63077 5.62051 5.60497 5.59477L3.2543 3.23628C3.24433 3.22308 3.23507 3.20947 3.22635 3.19537C3.21763 3.18134 3.20957 3.16688 3.20217 3.15213C3.19476 3.13738 3.18801 3.12227 3.18198 3.10692C3.17589 3.09151 3.17051 3.07593 3.16585 3.06004C3.1612 3.04421 3.15725 3.02815 3.15403 3.01196C3.1508 2.99572 3.1483 2.97942 3.1465 2.96299C3.14471 2.94657 3.1437 2.93008 3.1434 2.91354C3.1431 2.897 3.14352 2.88052 3.14465 2.86403C3.14585 2.84755 3.14776 2.83113 3.15039 2.81482C3.15301 2.79846 3.15642 2.78233 3.16048 2.76627C3.16454 2.75026 3.16938 2.73449 3.17487 2.71891C3.18037 2.70326 3.18652 2.68797 3.19339 2.67292C3.20025 2.65787 3.20778 2.64318 3.21596 2.62885C3.22414 2.61445 3.23292 2.60048 3.24236 2.58692C3.25179 2.5733 3.26177 2.56023 3.2724 2.5475C3.28297 2.53484 3.29414 2.52266 3.30584 2.51095C3.31749 2.49925 3.32967 2.48814 3.34239 2.47751C3.35505 2.46694 3.36819 2.45691 3.38175 2.44747C3.39537 2.43803 3.40934 2.42925 3.42367 2.42107C3.43807 2.41289 3.45276 2.40537 3.46781 2.3985C3.48286 2.39163 3.49815 2.38548 3.51374 2.37998C3.52932 2.37449 3.54515 2.36971 3.56116 2.36559C3.57716 2.36153 3.59335 2.35818 3.60965 2.35556C3.62601 2.35287 3.64238 2.35096 3.65886 2.34982C3.67534 2.34863 3.69189 2.34821 3.70843 2.34851C3.72491 2.34881 3.7414 2.34988 3.75782 2.35162C3.7743 2.35341 3.79061 2.35592 3.80679 2.35914C3.82304 2.36237 3.83904 2.36631 3.85493 2.37102C3.87075 2.37568 3.8864 2.38106 3.90175 2.38709C3.91716 2.39318 3.93221 2.39993 3.94702 2.40734C3.96177 2.41474 3.97622 2.4228 3.99026 2.43146C4.00429 2.44018 4.01797 2.4495 4.03117 2.45941L6.38966 4.80901C6.40901 4.8283 6.4268 4.8489 6.44311 4.87082C6.45941 4.89274 6.47398 4.91573 6.48688 4.93986C6.49978 4.96392 6.51089 4.98883 6.52009 5.01457C6.52935 5.04025 6.53657 5.06653 6.54195 5.09334C6.54726 5.12016 6.55061 5.14715 6.55198 5.17445C6.55335 5.20174 6.5527 5.22897 6.55001 5.25621C6.54732 5.28338 6.54266 5.31025 6.53604 5.33677C6.52941 5.36323 6.52081 5.38915 6.51035 5.41435C6.4999 5.43961 6.48766 5.46392 6.47357 5.48739C6.45953 5.5108 6.44382 5.53308 6.42645 5.55416C6.40913 5.5753 6.39031 5.59501 6.37007 5.61334C6.34982 5.63168 6.32832 5.64846 6.30557 5.66357C6.28281 5.67874 6.2591 5.69218 6.23438 5.70382C6.20965 5.71547 6.18421 5.72526 6.15805 5.73315C6.1319 5.74103 6.10532 5.74694 6.07827 5.75094C6.05127 5.75489 6.02404 5.75686 5.99674 5.7568H5.99788Z" fill="white"/>
<path d="M3.64302 14.3893C3.61603 14.3889 3.58927 14.3865 3.56269 14.3821C3.53606 14.3778 3.5099 14.3716 3.48422 14.3634C3.45854 14.3553 3.43357 14.3453 3.40933 14.3335C3.38508 14.3218 3.36179 14.3083 3.33951 14.2931C3.31724 14.2779 3.29615 14.2613 3.27633 14.243C3.2565 14.2248 3.23804 14.2052 3.22108 14.1842C3.20406 14.1633 3.18871 14.1413 3.17492 14.1181C3.16112 14.0949 3.14912 14.0709 3.13885 14.046C3.12857 14.021 3.12015 13.9955 3.11358 13.9693C3.10701 13.9432 3.10242 13.9167 3.09973 13.8899C3.09704 13.8631 3.09626 13.8362 3.09752 13.8093C3.09871 13.7823 3.10188 13.7557 3.10701 13.7292C3.11215 13.7027 3.11914 13.6768 3.12804 13.6513C3.13693 13.6259 3.14763 13.6011 3.16011 13.5773C3.17259 13.5534 3.18674 13.5306 3.20257 13.5087C3.2184 13.4869 3.23572 13.4664 3.25459 13.447L5.60525 11.0875C5.61803 11.0742 5.63141 11.0617 5.64538 11.0498C5.65942 11.0379 5.67399 11.0268 5.6891 11.0163C5.70421 11.0059 5.71986 10.9962 5.73592 10.9873C5.75199 10.9784 5.76847 10.9704 5.78537 10.9631C5.80227 10.9559 5.81947 10.9495 5.83697 10.9439C5.85447 10.9384 5.87227 10.9337 5.89024 10.9299C5.90822 10.9261 5.92632 10.9233 5.94459 10.9213C5.96287 10.9193 5.9812 10.9182 5.9996 10.9181C6.01793 10.9179 6.03626 10.9187 6.0546 10.9203C6.07288 10.922 6.09109 10.9246 6.10913 10.928C6.12716 10.9315 6.14502 10.9359 6.16258 10.9411C6.1802 10.9463 6.19752 10.9524 6.21454 10.9594C6.23156 10.9663 6.24816 10.9741 6.2644 10.9827C6.28065 10.9913 6.29641 11.0007 6.3117 11.0109C6.32699 11.0211 6.34174 11.032 6.35596 11.0436C6.37017 11.0552 6.38379 11.0676 6.39681 11.0806C6.40977 11.0936 6.42213 11.1072 6.43378 11.1214C6.44542 11.1356 6.45629 11.1504 6.4665 11.1657C6.47666 11.181 6.48603 11.1967 6.49463 11.213C6.50329 11.2292 6.51106 11.2458 6.51798 11.2628C6.52497 11.2799 6.53106 11.2972 6.53632 11.3148C6.54157 11.3324 6.54587 11.3502 6.54934 11.3682C6.55286 11.3863 6.55537 11.4045 6.55704 11.4228C6.55871 11.4411 6.55949 11.4594 6.55931 11.4778C6.55913 11.4962 6.55806 11.5145 6.55609 11.5328C6.55412 11.5511 6.55125 11.5692 6.54749 11.5871C6.54366 11.6051 6.53901 11.6229 6.53345 11.6404C6.52796 11.6579 6.52151 11.6751 6.51428 11.692C6.50705 11.7089 6.49893 11.7254 6.49003 11.7415C6.48119 11.7575 6.47152 11.7732 6.46107 11.7883C6.45062 11.8034 6.43945 11.818 6.42756 11.832C6.41568 11.846 6.40314 11.8593 6.38994 11.8721L4.03145 14.2239C4.00607 14.2497 3.97836 14.2728 3.94844 14.2932C3.91852 14.3136 3.88687 14.3308 3.8536 14.345C3.82028 14.3592 3.78588 14.37 3.75046 14.3775C3.71505 14.3849 3.67921 14.3889 3.64302 14.3893Z" fill="white"/>
<path d="M12.2752 5.7568C12.2479 5.75686 12.2208 5.75489 12.1937 5.75094C12.1667 5.74694 12.1401 5.74103 12.1139 5.73315C12.0878 5.72526 12.0623 5.71547 12.0376 5.70382C12.0129 5.69218 11.9892 5.67874 11.9664 5.66357C11.9437 5.64846 11.9222 5.63168 11.9019 5.61334C11.8817 5.59501 11.8628 5.5753 11.8455 5.55416C11.8281 5.53308 11.8124 5.5108 11.7984 5.48739C11.7843 5.46392 11.7721 5.43961 11.7616 5.41435C11.7512 5.38915 11.7426 5.36323 11.7359 5.33677C11.7293 5.31025 11.7246 5.28338 11.722 5.25621C11.7193 5.22903 11.7186 5.20174 11.72 5.17445C11.7214 5.14715 11.7247 5.12016 11.73 5.09334C11.7354 5.06653 11.7427 5.04025 11.7519 5.01457C11.7611 4.98883 11.7722 4.96392 11.7851 4.93986C11.798 4.91573 11.8126 4.89274 11.8289 4.87082C11.8452 4.8489 11.863 4.8283 11.8824 4.80901L14.2419 2.45941C14.2551 2.4495 14.2688 2.44018 14.2828 2.43146C14.2969 2.4228 14.3113 2.41474 14.3261 2.40734C14.3408 2.39993 14.3559 2.39318 14.3713 2.38709C14.3867 2.38106 14.4023 2.37568 14.4182 2.37102C14.434 2.36631 14.4501 2.36237 14.4663 2.35914C14.4825 2.35592 14.4988 2.35341 14.5152 2.35162C14.5317 2.34988 14.5481 2.34881 14.5647 2.34851C14.5812 2.34821 14.5977 2.34863 14.6142 2.34982C14.6307 2.35096 14.6471 2.35287 14.6634 2.35556C14.6798 2.35818 14.6959 2.36153 14.712 2.36559C14.728 2.36971 14.7437 2.37449 14.7593 2.37998C14.775 2.38548 14.7902 2.39163 14.8053 2.3985C14.8203 2.40537 14.835 2.41289 14.8494 2.42107C14.8638 2.42925 14.8777 2.43803 14.8913 2.44747C14.9049 2.45691 14.918 2.46694 14.9307 2.47751C14.9434 2.48814 14.9556 2.49925 14.9673 2.51095C14.979 2.52266 14.9901 2.53484 15.0007 2.5475C15.0113 2.56023 15.0213 2.5733 15.0307 2.58692C15.0402 2.60048 15.049 2.61445 15.0571 2.62885C15.0653 2.64318 15.0729 2.65787 15.0797 2.67292C15.0866 2.68797 15.0927 2.70332 15.0982 2.71891C15.1037 2.73449 15.1085 2.75026 15.1126 2.76627C15.1167 2.78233 15.12 2.79846 15.1227 2.81482C15.1253 2.83113 15.1273 2.84755 15.1284 2.86403C15.1296 2.88052 15.13 2.897 15.1297 2.91354C15.1294 2.93008 15.1283 2.94657 15.1266 2.96299C15.1248 2.97942 15.1223 2.99572 15.1191 3.01196C15.1159 3.02815 15.1119 3.04421 15.1072 3.06004C15.1025 3.07593 15.0972 3.09151 15.0911 3.10692C15.085 3.12227 15.0783 3.13738 15.0709 3.15213C15.0635 3.16694 15.0554 3.18134 15.0468 3.19537C15.038 3.20947 15.0287 3.22308 15.0188 3.23628L12.6681 5.59364C12.6423 5.6195 12.6143 5.64261 12.5839 5.66291C12.5536 5.68322 12.5216 5.70042 12.4879 5.71439C12.4542 5.72837 12.4194 5.73894 12.3836 5.74611C12.3478 5.75321 12.3117 5.7568 12.2752 5.7568Z" fill="white"/>
</svg>
