<svg width="19" height="26" viewBox="0 0 19 26" fill="none" xmlns="http://www.w3.org/2000/svg">
<path d="M16.7726 11.4036C16.3423 11.4036 15.9403 11.5295 15.6076 11.7447C15.32 10.9449 14.5286 10.3539 13.6239 10.3539C13.1935 10.3539 12.7915 10.4799 12.4588 10.6951C12.1712 9.89524 11.3799 9.30427 10.4751 9.30427C10.093 9.30427 9.73305 9.40397 9.42548 9.57612V5.03113C9.42548 3.91533 8.48399 3.00528 7.3263 3.00528C6.18855 3.00528 5.22711 3.94472 5.22711 5.05318V13.6604L3.74408 12.1363C2.98625 11.3763 1.60291 11.4046 0.823035 12.1835C0.0862725 12.9214 0.0463434 14.1075 0.726475 15.0648C1.19041 15.7187 1.7467 16.9279 2.33659 18.2117C3.89522 21.6042 5.66166 25.45 8.1534 25.45H14.0836C14.1497 25.45 14.2158 25.4375 14.2788 25.4134C14.4677 25.3399 18.8729 23.5271 18.8729 19.1301V13.4515C18.8718 12.3409 17.9104 11.4036 16.7726 11.4036Z" fill="white"/>
<path d="M4.17759 9.31594V5.05329C4.17759 3.37277 5.61972 1.95572 7.32634 1.95572C9.06236 1.95572 10.4751 3.33392 10.4751 5.03124V8.25368C10.7722 8.25368 11.0587 8.31037 11.3337 8.38909C12.0243 7.50736 12.4179 6.44511 12.4179 5.31465C12.4179 3.96374 11.8826 2.69259 10.9086 1.73531C8.9102 -0.228614 5.65435 -0.228614 3.6507 1.73634C2.68089 2.69259 2.14455 3.96374 2.14455 5.31465C2.14455 6.66762 2.67981 7.93877 3.65281 8.89394C3.81443 9.0535 3.99917 9.18264 4.17759 9.31594Z" fill="white"/>
</svg>
