<svg width="32" height="32" viewBox="0 0 32 32" fill="none" xmlns="http://www.w3.org/2000/svg">
<path d="M30.532 15.3322H26.3192C25.9878 10.1623 21.8384 6.01509 16.6677 5.68702V1.46786C16.6677 1.09898 16.3686 0.800003 15.9998 0.800003C15.6309 0.800003 15.332 1.09898 15.332 1.46786V5.68786C10.1676 6.02241 6.02522 10.1668 5.69411 15.3322H1.46771C1.09884 15.3322 0.799805 15.6312 0.799805 16C0.799805 16.3688 1.09884 16.6679 1.46771 16.6679H5.69411C6.02522 21.8332 10.1676 25.9777 15.332 26.3121V30.5322C15.332 30.901 15.6309 31.2 15.9998 31.2C16.3686 31.2 16.6677 30.901 16.6677 30.5322V26.3129C21.8384 25.9849 25.9877 21.8377 26.3191 16.6679H30.532C30.9008 16.6679 31.1998 16.3688 31.1998 16C31.1999 15.6312 30.9008 15.3322 30.532 15.3322ZM16.6677 24.9746V20.8154C16.6677 20.4465 16.3686 20.1475 15.9998 20.1475C15.6309 20.1475 15.332 20.4465 15.332 20.8154V24.9738C10.9044 24.644 7.35895 21.0964 7.03245 16.668H11.1846C11.5534 16.668 11.8525 16.3689 11.8525 16.0001C11.8525 15.6313 11.5534 15.3322 11.1846 15.3322H7.03245C7.35889 10.9036 10.9043 7.35609 15.332 7.02627V11.1848C15.332 11.5536 15.6309 11.8527 15.9998 11.8527C16.3686 11.8527 16.6677 11.5536 16.6677 11.1848V7.02542C21.1016 7.34888 24.6541 10.899 24.9808 15.3322H20.8151C20.4463 15.3322 20.1472 15.6312 20.1472 16C20.1472 16.3688 20.4463 16.6679 20.8151 16.6679H24.9808C24.654 21.101 21.1016 24.6512 16.6677 24.9746Z" fill="white"/>
</svg>
