<svg width="30" height="21" viewBox="0 0 30 21" fill="none" xmlns="http://www.w3.org/2000/svg">
<path d="M26.5196 0.599998H3.47959C1.88837 0.599998 0.613967 1.8893 0.613967 3.48111L0.599609 17.8868C0.599609 19.4787 1.88837 20.768 3.47959 20.768H26.5196C28.1108 20.768 29.3996 19.4787 29.3996 17.8868V3.48111C29.3996 1.8893 28.1108 0.599998 26.5196 0.599998ZM13.5596 4.92173H16.4396V7.80284H13.5596V4.92173ZM13.5596 9.2434H16.4396V12.1246H13.5596V9.2434ZM9.23956 4.92173H12.1196V7.80284H9.23956V4.92173ZM9.23956 9.2434H12.1196V12.1246H9.23956V9.2434ZM7.79959 12.1246H4.91955V9.2434H7.79959V12.1246ZM7.79959 7.80284H4.91955V4.92173H7.79959V7.80284ZM20.7596 17.8868H9.23956V15.0057H20.7596V17.8868ZM20.7596 12.1246H17.8796V9.2434H20.7596V12.1246ZM20.7596 7.80284H17.8796V4.92173H20.7596V7.80284ZM25.0796 12.1246H22.1996V9.2434H25.0796V12.1246ZM25.0796 7.80284H22.1996V4.92173H25.0796V7.80284Z" fill="white"/>
</svg>
