<svg width="26" height="26" viewBox="0 0 26 26" fill="none" xmlns="http://www.w3.org/2000/svg">
<path d="M17.6135 10.1903C17.1862 10.1903 16.8393 9.87073 16.8393 9.47701V5.91058H3.67935C2.11361 5.91058 0.840898 4.73787 0.840898 3.29514C0.840898 1.8523 2.11361 0.679688 3.67935 0.679688H15.5491C15.9764 0.679688 16.3232 0.999266 16.3232 1.39299V4.48398H17.6135C18.0408 4.48398 18.3876 4.80355 18.3876 5.19728V9.47701C18.3876 9.87073 18.0408 10.1903 17.6135 10.1903ZM3.67935 2.1063C2.9682 2.1063 2.38914 2.63986 2.38914 3.29514C2.38914 3.95042 2.9682 4.48398 3.67935 4.48398H14.775V2.1063H3.67935Z" fill="white"/>
<path d="M11.4204 21.6048H3.67927C2.11353 21.6048 0.84082 20.4321 0.84082 18.9893V3.29682C0.84082 2.90309 1.18765 2.58352 1.61494 2.58352C2.04224 2.58352 2.38907 2.90309 2.38907 3.29682V18.9893C2.38907 19.6446 2.96812 20.1782 3.67927 20.1782H11.4204C11.8477 20.1782 12.1945 20.4977 12.1945 20.8915C12.1945 21.2852 11.8477 21.6048 11.4204 21.6048Z" fill="white"/>
<path d="M18.2942 23.2667C15.4636 23.2667 13.1608 20.9638 13.1608 18.1334C13.1608 15.3028 15.4636 13 18.2942 13C21.1247 13 23.4275 15.3028 23.4275 18.1334C23.4275 20.9638 21.1247 23.2667 18.2942 23.2667ZM18.2942 14.54C16.3127 14.54 14.7008 16.1519 14.7008 18.1334C14.7008 20.1149 16.3127 21.7267 18.2942 21.7267C20.2757 21.7267 21.8875 20.1149 21.8875 18.1334C21.8875 16.1519 20.2757 14.54 18.2942 14.54Z" fill="white"/>
<path d="M24.8057 25.3206C24.6332 25.3206 24.4605 25.2549 24.3293 25.1229L21.5714 22.3651C21.308 22.1017 21.308 21.6748 21.5714 21.4114C21.8348 21.148 22.2618 21.1481 22.5252 21.4114L25.283 24.1691C25.5464 24.4325 25.5464 24.8595 25.283 25.1229C25.1509 25.2549 24.9783 25.3206 24.8057 25.3206Z" fill="white"/>
<path d="M17.6135 10.1903C17.1862 10.1903 16.8393 9.87073 16.8393 9.47701V5.91058H3.67935C2.11361 5.91058 0.840898 4.73787 0.840898 3.29514C0.840898 1.8523 2.11361 0.679688 3.67935 0.679688H15.5491C15.9764 0.679688 16.3232 0.999266 16.3232 1.39299V4.48398H17.6135C18.0408 4.48398 18.3876 4.80355 18.3876 5.19728V9.47701C18.3876 9.87073 18.0408 10.1903 17.6135 10.1903ZM3.67935 2.1063C2.9682 2.1063 2.38914 2.63986 2.38914 3.29514C2.38914 3.95042 2.9682 4.48398 3.67935 4.48398H14.775V2.1063H3.67935Z" stroke="white" stroke-width="0.4"/>
<path d="M11.4204 21.6048H3.67927C2.11353 21.6048 0.84082 20.4321 0.84082 18.9893V3.29682C0.84082 2.90309 1.18765 2.58352 1.61494 2.58352C2.04224 2.58352 2.38907 2.90309 2.38907 3.29682V18.9893C2.38907 19.6446 2.96812 20.1782 3.67927 20.1782H11.4204C11.8477 20.1782 12.1945 20.4977 12.1945 20.8915C12.1945 21.2852 11.8477 21.6048 11.4204 21.6048Z" stroke="white" stroke-width="0.4"/>
<path d="M18.2942 23.2667C15.4636 23.2667 13.1608 20.9638 13.1608 18.1334C13.1608 15.3028 15.4636 13 18.2942 13C21.1247 13 23.4275 15.3028 23.4275 18.1334C23.4275 20.9638 21.1247 23.2667 18.2942 23.2667ZM18.2942 14.54C16.3127 14.54 14.7008 16.1519 14.7008 18.1334C14.7008 20.1149 16.3127 21.7267 18.2942 21.7267C20.2757 21.7267 21.8875 20.1149 21.8875 18.1334C21.8875 16.1519 20.2757 14.54 18.2942 14.54Z" stroke="white" stroke-width="0.4"/>
<path d="M24.8057 25.3206C24.6332 25.3206 24.4605 25.2549 24.3293 25.1229L21.5714 22.3651C21.308 22.1017 21.308 21.6748 21.5714 21.4114C21.8348 21.148 22.2618 21.1481 22.5252 21.4114L25.283 24.1691C25.5464 24.4325 25.5464 24.8595 25.283 25.1229C25.1509 25.2549 24.9783 25.3206 24.8057 25.3206Z" stroke="white" stroke-width="0.4"/>
</svg>
