<svg width="24" height="24" viewBox="0 0 24 24" fill="none" xmlns="http://www.w3.org/2000/svg">
<path d="M11.6804 0.532608C18.0064 0.357912 23.2735 5.34069 23.4503 11.6634C23.4524 11.7742 23.4546 11.885 23.4546 11.9979C23.4567 18.3227 18.3303 23.4525 12.0043 23.4546C5.67829 23.4568 0.547606 18.3312 0.545463 12.0064C0.545463 12.0043 0.545463 12 0.545463 11.9979C0.536941 5.79019 5.47586 0.705162 11.6804 0.532608ZM11.6485 0.00428463C5.16054 0.193879 6.12035e-07 5.50682 6.12035e-07 11.9979C-0.00209339 18.6231 5.36935 23.9979 11.9957 24C18.6243 24.0021 23.9979 18.6316 24 12.0064C24 12.0021 24 12 24 11.9979C24 5.37049 18.6286 0 12 0C11.8828 0 11.7656 0 11.6485 0.00428463Z" fill="white"/>
<path d="M12.2514 18.197V20.1017H10.2869V18.197H12.2514Z" fill="white"/>
<path d="M15.1897 11.9211C16.7707 10.1593 16.6258 7.44955 14.8616 5.86887C13.1016 4.28823 10.3893 4.43522 8.81044 6.19693C8.10306 6.98302 7.71313 8.00344 7.71313 9.06009V9.64168H9.67765V9.06009C9.67765 7.77762 10.7174 6.73592 12.0001 6.73592C13.2827 6.73592 14.3247 7.77762 14.3247 9.06009C14.3247 9.63316 14.1116 10.1849 13.7281 10.6109L10.7899 13.8874C10.466 14.2474 10.287 14.7139 10.287 15.1975V16.661H12.2515V15.1975L15.1897 11.9211Z" fill="white"/>
</svg>
