<svg width="26" height="25" viewBox="0 0 26 25" fill="none" xmlns="http://www.w3.org/2000/svg">
<path d="M12.6321 0C8.98461 0 5.701 1.47832 3.35931 3.84651L3.35797 0H0.5V7.18041C0.5 7.94801 1.14115 8.56915 1.92865 8.56915L1.92999 8.57046L9.32298 8.56915V5.79428H5.39688C7.22029 3.9387 9.7842 2.77814 12.6321 2.77814C18.158 2.77814 22.64 7.13071 22.64 12.5C22.64 17.8686 18.158 22.2225 12.6321 22.2225C9.86879 22.2225 7.36664 21.1345 5.55599 19.3738L3.53252 21.3379C5.86146 23.6001 9.0786 25 12.6321 25C19.7391 25 25.5 19.4038 25.5 12.5C25.5007 5.59617 19.7391 0 12.6321 0Z" fill="white"/>
</svg>
